# xmcd
#
# Track frame offsets:
#	150
#	5171
#	15278
#	26797
#	39996
#	53928
#	68427
#	79320
#	93195
#	106205
#	122820
#	135327
#	145625
#	158094
#	170557
#	182934
#	194629
#	206211
#	219380
#	230633
#	249153
#	260349
#	272968
#	286729
#
# Disc length: 3856 seconds
#
# Revision: 3
# Processed by: cddbd v1.5.2PL0 Copyright (c) Steve Scherf et al.
# Submitted via: audiograbber 1.83.01
#
DISCID=510f0e18
DTITLE=Ben Hewlett - 101 Blues Riffs
DYEAR=2009
DGENRE=Blues
TTITLE0=Welcome Back
TTITLE1=(Riffs 1-5) Chugging Riffs
TTITLE2=(Riffs 6-10) Deford Bailey
TTITLE3=(11-15) Sonny Terry
TTITLE4=(16-20) Little Walter Jacobs
TTITLE5=(21-25) Sony Boy Williamson II
TTITLE6=(26-30) 'Mannish Boy' Style Riffs
TTITLE7=(31-35) Endings
TTITLE8=(36-40) William Clarke
TTITLE9=(41-45) JJ Milteau
TTITLE10=(46-50) Brendan Power
TTITLE11=(51-55) Shakes Rattles and Rolls
TTITLE12=(56-60) Tongue Blocked Riffs
TTITLE13=(61-65) Big Walter (Shakey) Horton
TTITLE14=(66-70) Charlie McCoy
TTITLE15=(71-75) Howard Levy
TTITLE16=(76-80) Rod Piazza
TTITLE17=(81-85) Third Position Riffs
TTITLE18=(86-90) First Position Riffs
TTITLE19=(91-95) Fast and Flashy
TTITLE20=(96-100)  Jazzy Riffs
TTITLE21=(101) Sonny Terry Whooping
TTITLE22=Twelve Bar Blues in G
TTITLE23=Farewell
EXTD=101 Blues Riffs for diatonic harmonica in C in stykes of ...\n\nCD 2009 Be
EXTD=n Hewlett  arranged and transcrobed by Paul Lennon L.T.C.L. \ncourse revis
EXTD=ed 2011\n'A real nice approach. For everyone from beginners to "ntermediat
EXTD=es" Lee Oskar
EXTT0=
EXTT1=
EXTT2=
EXTT3=
EXTT4=
EXTT5=
EXTT6=
EXTT7=
EXTT8=
EXTT9=
EXTT10=
EXTT11=
EXTT12=
EXTT13=
EXTT14=
EXTT15=
EXTT16=
EXTT17=
EXTT18=
EXTT19=
EXTT20=
EXTT21=
EXTT22=
EXTT23=
PLAYORDER=
